<mxfile host="app.diagrams.net" modified="2021-11-23T14:47:35.863Z" agent="5.0 (Macintosh; Intel Mac OS X 10_15_7) AppleWebKit/537.36 (KHTML, like Gecko) Chrome/95.0.4638.69 Safari/537.36" etag="mHDASp10QkC-AelyMmdT" version="15.8.3" type="github">
  <diagram id="QYaOPdWmR0xaWbTQR-_n" name="Page-1">
    <mxGraphModel dx="946" dy="501" grid="1" gridSize="10" guides="1" tooltips="1" connect="1" arrows="1" fold="1" page="1" pageScale="1" pageWidth="827" pageHeight="1169" math="0" shadow="0">
      <root>
        <mxCell id="0" />
        <mxCell id="1" parent="0" />
        <mxCell id="4SRvurFSlK2ozCXUQPIR-8" style="edgeStyle=orthogonalEdgeStyle;rounded=0;orthogonalLoop=1;jettySize=auto;html=1;exitX=1;exitY=0.5;exitDx=0;exitDy=0;entryX=0;entryY=0.5;entryDx=0;entryDy=0;" edge="1" parent="1" source="4SRvurFSlK2ozCXUQPIR-1" target="4SRvurFSlK2ozCXUQPIR-2">
          <mxGeometry relative="1" as="geometry" />
        </mxCell>
        <mxCell id="4SRvurFSlK2ozCXUQPIR-1" value="0" style="ellipse;whiteSpace=wrap;html=1;aspect=fixed;" vertex="1" parent="1">
          <mxGeometry x="140" y="220" width="30" height="30" as="geometry" />
        </mxCell>
        <mxCell id="4SRvurFSlK2ozCXUQPIR-9" style="edgeStyle=orthogonalEdgeStyle;rounded=0;orthogonalLoop=1;jettySize=auto;html=1;exitX=1;exitY=0.5;exitDx=0;exitDy=0;entryX=0;entryY=0.5;entryDx=0;entryDy=0;" edge="1" parent="1" source="4SRvurFSlK2ozCXUQPIR-2" target="4SRvurFSlK2ozCXUQPIR-3">
          <mxGeometry relative="1" as="geometry" />
        </mxCell>
        <mxCell id="4SRvurFSlK2ozCXUQPIR-13" style="edgeStyle=orthogonalEdgeStyle;rounded=0;orthogonalLoop=1;jettySize=auto;html=1;exitX=0;exitY=0.5;exitDx=0;exitDy=0;" edge="1" parent="1" source="4SRvurFSlK2ozCXUQPIR-2">
          <mxGeometry relative="1" as="geometry">
            <mxPoint x="170" y="235" as="targetPoint" />
          </mxGeometry>
        </mxCell>
        <mxCell id="4SRvurFSlK2ozCXUQPIR-2" value="0" style="ellipse;whiteSpace=wrap;html=1;aspect=fixed;" vertex="1" parent="1">
          <mxGeometry x="240" y="220" width="30" height="30" as="geometry" />
        </mxCell>
        <mxCell id="4SRvurFSlK2ozCXUQPIR-10" style="edgeStyle=orthogonalEdgeStyle;rounded=0;orthogonalLoop=1;jettySize=auto;html=1;exitX=1;exitY=0.5;exitDx=0;exitDy=0;entryX=0;entryY=0.5;entryDx=0;entryDy=0;" edge="1" parent="1" source="4SRvurFSlK2ozCXUQPIR-3" target="4SRvurFSlK2ozCXUQPIR-5">
          <mxGeometry relative="1" as="geometry" />
        </mxCell>
        <mxCell id="4SRvurFSlK2ozCXUQPIR-14" style="edgeStyle=orthogonalEdgeStyle;rounded=0;orthogonalLoop=1;jettySize=auto;html=1;exitX=0;exitY=0.5;exitDx=0;exitDy=0;entryX=1;entryY=0.5;entryDx=0;entryDy=0;" edge="1" parent="1" source="4SRvurFSlK2ozCXUQPIR-3" target="4SRvurFSlK2ozCXUQPIR-2">
          <mxGeometry relative="1" as="geometry" />
        </mxCell>
        <mxCell id="4SRvurFSlK2ozCXUQPIR-3" value="0" style="ellipse;whiteSpace=wrap;html=1;aspect=fixed;" vertex="1" parent="1">
          <mxGeometry x="330" y="220" width="30" height="30" as="geometry" />
        </mxCell>
        <mxCell id="4SRvurFSlK2ozCXUQPIR-12" style="edgeStyle=orthogonalEdgeStyle;rounded=0;orthogonalLoop=1;jettySize=auto;html=1;exitX=1;exitY=0.5;exitDx=0;exitDy=0;entryX=0;entryY=0.5;entryDx=0;entryDy=0;" edge="1" parent="1" source="4SRvurFSlK2ozCXUQPIR-4" target="4SRvurFSlK2ozCXUQPIR-6">
          <mxGeometry relative="1" as="geometry" />
        </mxCell>
        <mxCell id="4SRvurFSlK2ozCXUQPIR-16" style="edgeStyle=orthogonalEdgeStyle;rounded=0;orthogonalLoop=1;jettySize=auto;html=1;exitX=0;exitY=0.5;exitDx=0;exitDy=0;entryX=1;entryY=0.5;entryDx=0;entryDy=0;" edge="1" parent="1" source="4SRvurFSlK2ozCXUQPIR-4" target="4SRvurFSlK2ozCXUQPIR-5">
          <mxGeometry relative="1" as="geometry" />
        </mxCell>
        <mxCell id="4SRvurFSlK2ozCXUQPIR-4" value="0" style="ellipse;whiteSpace=wrap;html=1;aspect=fixed;" vertex="1" parent="1">
          <mxGeometry x="500" y="220" width="30" height="30" as="geometry" />
        </mxCell>
        <mxCell id="4SRvurFSlK2ozCXUQPIR-11" style="edgeStyle=orthogonalEdgeStyle;rounded=0;orthogonalLoop=1;jettySize=auto;html=1;exitX=1;exitY=0.5;exitDx=0;exitDy=0;" edge="1" parent="1" source="4SRvurFSlK2ozCXUQPIR-5" target="4SRvurFSlK2ozCXUQPIR-4">
          <mxGeometry relative="1" as="geometry" />
        </mxCell>
        <mxCell id="4SRvurFSlK2ozCXUQPIR-15" style="edgeStyle=orthogonalEdgeStyle;rounded=0;orthogonalLoop=1;jettySize=auto;html=1;exitX=0;exitY=0.5;exitDx=0;exitDy=0;" edge="1" parent="1" source="4SRvurFSlK2ozCXUQPIR-5" target="4SRvurFSlK2ozCXUQPIR-3">
          <mxGeometry relative="1" as="geometry" />
        </mxCell>
        <mxCell id="4SRvurFSlK2ozCXUQPIR-5" value="0" style="ellipse;whiteSpace=wrap;html=1;aspect=fixed;" vertex="1" parent="1">
          <mxGeometry x="414" y="220" width="30" height="30" as="geometry" />
        </mxCell>
        <mxCell id="4SRvurFSlK2ozCXUQPIR-17" style="edgeStyle=orthogonalEdgeStyle;rounded=0;orthogonalLoop=1;jettySize=auto;html=1;exitX=0;exitY=0.5;exitDx=0;exitDy=0;entryX=1;entryY=0.5;entryDx=0;entryDy=0;" edge="1" parent="1" source="4SRvurFSlK2ozCXUQPIR-6" target="4SRvurFSlK2ozCXUQPIR-4">
          <mxGeometry relative="1" as="geometry" />
        </mxCell>
        <mxCell id="4SRvurFSlK2ozCXUQPIR-6" value="1" style="ellipse;whiteSpace=wrap;html=1;aspect=fixed;" vertex="1" parent="1">
          <mxGeometry x="580" y="220" width="30" height="30" as="geometry" />
        </mxCell>
      </root>
    </mxGraphModel>
  </diagram>
</mxfile>
